<svg viewBox="0 0 94 94" xmlns="http://www.w3.org/2000/svg"><g fill="none" stroke-linecap="round" stroke-linejoin="round" stroke-width="3"><path d="m42.94 69.68-14.71 14.71" stroke="#083041"/><path d="m59.9 70.3-14.71 14.7" stroke="#ea5426"/><path d="m23.34 33.73-14.71 14.71" stroke="#ea5426"/><path d="m24.3 51.05-14.7 14.71" stroke="#083041"/><path d="m29.84 63.81-20.93 20.93" stroke="#ea5426"/></g><path d="m82.54 9h-28.1a2.11 2.11 0 0 0 -1.44 3.6l28 28.1a2.11 2.11 0 0 0 3.61-1.49v-28.1a2.11 2.11 0 0 0 -2.07-2.11z" fill="#4285f4"/><path d="m48.57 17.39h13.38a3.33 3.33 0 0 1 3.33 3.33v38.67a0 0 0 0 1 0 0h-20a0 0 0 0 1 0 0v-38.67a3.33 3.33 0 0 1 3.33-3.33z" fill="#4285f4" transform="matrix(.70710678 .70710678 -.70710678 .70710678 43.33 -27.83)"/></svg>